<?xml version="1.0" encoding="utf-8"?>
<!-- Generator: Adobe Illustrator 26.2.1, SVG Export Plug-In . SVG Version: 6.00 Build 0)  -->
<svg version="1.1" id="Layer_1" xmlns="http://www.w3.org/2000/svg" xmlns:xlink="http://www.w3.org/1999/xlink" x="0px" y="0px"
	 viewBox="0 0 556.5 618.5" style="enable-background:new 0 0 556.5 618.5;" xml:space="preserve">
<style type="text/css">
	.st0{fill:#5E3F29;}
	.st1{fill:#74B24B;}
	.st2{fill:#5D6F32;}
	.st3{fill:#4A3123;}
	.st4{fill:#518630;}
	.st5{fill:#64452F;}
	.st6{fill:#65442F;}
	.st7{fill:#7B593B;}
	.st8{fill:#64452D;}
	.st9{fill:#624330;}
	.st10{fill:#644531;}
	.st11{fill:#483223;}
	.st12{fill:#42361F;}
	.st13{fill:#483221;}
	.st14{fill:#473321;}
	.st15{fill:#5A8C37;}
	.st16{fill:#4C842A;}
	.st17{fill:#795841;}
	.st18{fill:#5D913B;}
	.st19{fill:#966D4D;}
	.st20{fill:#65452D;}
	.st21{fill:#634733;}
	.st22{fill:#966E4B;}
	.st23{fill:#79593F;}
	.st24{fill:#7C5940;}
	.st25{fill:#7B583D;}
	.st26{fill:#79593D;}
	.st27{fill:#5F963F;}
	.st28{fill:#679C46;}
	.st29{fill:#769E51;}
	.st30{fill:#463121;}
	.st31{fill:#7BA356;}
	.st32{fill:#575958;}
	.st33{fill:#548B36;}
	.st34{fill:#7EA659;}
	.st35{fill:#5C903A;}
	.st36{fill:#624531;}
	.st37{fill:#483125;}
	.st38{fill:#473121;}
	.st39{fill:#4A3121;}
	.st40{fill:#946C4A;}
	.st41{fill:#7C593E;}
	.st42{fill:#62462D;}
	.st43{fill:#76593A;}
	.st44{fill:#976D4B;}
	.st45{fill:#906A4E;}
	.st46{fill:#47311F;}
	.st47{fill:#976D49;}
	.st48{fill:#585956;}
	.st49{fill:#7C573D;}
	.st50{fill:#4A3025;}
	.st51{fill:#79583A;}
	.st52{fill:#62462F;}
	.st53{fill:#67442B;}
	.st54{fill:#64432C;}
	.st55{fill:#7C583B;}
	.st56{fill:#6D6D6D;}
	.st57{fill:#7C573F;}
	.st58{fill:#473323;}
	.st59{fill:#473225;}
	.st60{fill:#739B4D;}
	.st61{fill:#5F943E;}
	.st62{fill:#60953F;}
	.st63{fill:#60913F;}
	.st64{fill:#966C4A;}
	.st65{fill:#5C933D;}
	.st66{fill:#538832;}
	.st67{fill:#41761D;}
	.st68{fill:#568B32;}
	.st69{fill:#558A31;}
	.st70{fill:#4E822C;}
	.st71{fill:#5A8F39;}
	.st72{fill:#538930;}
	.st73{fill:#4C832C;}
	.st74{fill:#528930;}
	.st75{fill:#619640;}
	.st76{fill:#588D37;}
	.st77{fill:#578C36;}
	.st78{fill:#669B45;}
	.st79{fill:#558C36;}
	.st80{fill:#62442E;}
	.st81{fill:#6F6F6F;}
	.st82{fill:#765A43;}
	.st83{fill:#61432D;}
	.st84{fill:#7B583F;}
	.st85{fill:#76A050;}
	.st86{fill:#50852F;}
	.st87{fill:#538A33;}
	.st88{fill:#4F842D;}
	.st89{fill:#5E933D;}
	.st90{fill:#4D8229;}
	.st91{fill:#72964A;}
	.st92{fill:#698E42;}
	.st93{fill:#689043;}
	.st94{fill:#789B50;}
	.st95{fill:#976C4D;}
	.st96{fill:#68452D;}
	.st97{fill:#477B27;}
	.st98{fill:#78583C;}
	.st99{fill:#706E6F;}
	.st100{fill:#65452B;}
	.st101{fill:#4B3425;}
	.st102{fill:#71503B;}
	.st103{fill:#493525;}
	.st104{fill:#4B3423;}
	.st105{fill:#372519;}
	.st106{fill:#6F513B;}
	.st107{fill:#5A422F;}
	.st108{fill:#5D432E;}
	.st109{fill:#5C422D;}
	.st110{fill:#396122;}
	.st111{fill:#446A29;}
	.st112{fill:#715039;}
	.st113{fill:#342619;}
	.st114{fill:#476C2D;}
	.st115{fill:#362519;}
	.st116{fill:#4C3325;}
	.st117{fill:#493523;}
	.st118{fill:#4B3427;}
	.st119{fill:#4C3327;}
	.st120{fill:#6F533C;}
	.st121{fill:#5C412F;}
	.st122{fill:#5C422B;}
	.st123{fill:#5A422D;}
	.st124{fill:#70523A;}
	.st125{fill:#4C3624;}
	.st126{fill:#456B2C;}
	.st127{fill:#3E6425;}
	.st128{fill:#3F6727;}
	.st129{fill:#6F5139;}
	.st130{fill:#5D793E;}
	.st131{fill:#335B1E;}
	.st132{fill:#342417;}
	.st133{fill:#466E2E;}
	.st134{fill:#58763A;}
	.st135{fill:#4F7435;}
	.st136{fill:#4C3526;}
	.st137{fill:#372517;}
	.st138{fill:#5D412D;}
	.st139{fill:#6D503A;}
	.st140{fill:#342717;}
	.st141{fill:#493226;}
	.st142{fill:#544437;}
	.st143{fill:#5A3D29;}
	.st144{fill:#46423E;}
	.st145{fill:#4C3423;}
	.st146{fill:#545253;}
	.st147{fill:#5D412B;}
	.st148{fill:#37271A;}
	.st149{fill:#414342;}
	.st150{fill:#446A27;}
	.st151{fill:#315917;}
	.st152{fill:#406829;}
	.st153{fill:#594028;}
	.st154{fill:#3D6322;}
	.st155{fill:#406526;}
	.st156{fill:#476F30;}
	.st157{fill:#406524;}
	.st158{fill:#424340;}
	.st159{fill:#41692A;}
	.st160{fill:#3E6626;}
	.st161{fill:#476F32;}
	.st162{fill:#396220;}
	.st163{fill:#4C7434;}
	.st164{fill:#5C4131;}
	.st165{fill:#724F39;}
	.st166{fill:#47702E;}
	.st167{fill:#567438;}
	.st168{fill:#5E4331;}
	.st169{fill:#37241B;}
	.st170{fill:#535353;}
	.st171{fill:#5B4332;}
	.st172{fill:#537137;}
	.st173{fill:#416725;}
	.st174{fill:#3B6120;}
	.st175{fill:#59773D;}
	.st176{fill:#4F6B32;}
	.st177{fill:#526D34;}
	.st178{fill:#3F6023;}
	.st179{fill:#362615;}
	.st180{fill:#43692A;}
	.st181{fill:#59743B;}
	.st182{fill:#456D2D;}
	.st183{fill:#3C621F;}
	.st184{fill:#38261A;}
	.st185{fill:#5E442F;}
	.st186{fill:#382618;}
	.st187{fill:#34261B;}
	.st188{fill:#617C43;}
	.st189{fill:#392417;}
	.st190{fill:#433A2F;}
	.st191{fill:#493322;}
	.st192{fill:#362617;}
	.st193{fill:#59412E;}
	.st194{fill:#64A23B;}
	.st195{fill:#6FB046;}
	.st196{fill:#9ECD70;}
	.st197{fill:#61A23A;}
	.st198{fill:#639F39;}
	.st199{fill:#6EAE47;}
	.st200{fill:#6BAC44;}
	.st201{fill:#6DAB44;}
	.st202{fill:#88B55B;}
	.st203{fill:#5D9B32;}
	.st204{fill:#6DAD45;}
	.st205{fill:#97C165;}
	.st206{fill:#6EAC45;}
	.st207{fill:#76B54E;}
	.st208{fill:#57952E;}
	.st209{fill:#68A941;}
	.st210{fill:#8FC462;}
	.st211{fill:#599730;}
	.st212{fill:#69A944;}
	.st213{fill:#8FBC60;}
	.st214{fill:#69AA42;}
	.st215{fill:#92C264;}
	.st216{fill:#6FB048;}
	.st217{fill:#62A138;}
	.st218{fill:#609F35;}
	.st219{fill:#8AB95C;}
	.st220{fill:#47851C;}
	.st221{fill:#6BA741;}
	.st222{fill:#71B248;}
	.st223{fill:#79B750;}
	.st224{fill:#5F9E34;}
	.st225{fill:#8AB758;}
	.st226{fill:#ACDE7D;}
	.st227{fill:#ACDD7F;}
	.st228{fill:#59982E;}
	.st229{fill:#7BB751;}
	.st230{fill:#5E9A34;}
	.st231{fill:#609E37;}
	.st232{fill:#64A03A;}
	.st233{fill:#7EBC58;}
	.st234{fill:#69A53E;}
	.st235{fill:#56942D;}
	.st236{fill:#7CAC4C;}
	.st237{fill:#9BC86B;}
	.st238{fill:#66A63E;}
	.st239{fill:#8EBB5E;}
	.st240{fill:#91BD61;}
	.st241{fill:#58962F;}
	.st242{fill:#77B34C;}
	.st243{fill:#95C465;}
	.st244{fill:#69A83F;}
	.st245{fill:#77B64F;}
	.st246{fill:#66A23C;}
	.st247{fill:#75B34E;}
	.st248{fill:#5D9E36;}
	.st249{fill:#A0CA6F;}
	.st250{fill:#86B356;}
	.st251{fill:#A1CC6E;}
	.st252{fill:#8EBB60;}
	.st253{fill:#5E9D33;}
	.st254{fill:#81B051;}
	.st255{fill:#6CAA45;}
	.st256{fill:#5A9932;}
	.st257{fill:#61A039;}
	.st258{fill:#7AA94C;}
	.st259{fill:#66A43F;}
	.st260{fill:#AAD97C;}
	.st261{fill:#70AF48;}
	.st262{fill:#84C35C;}
	.st263{fill:#75B34C;}
	.st264{fill:#82C059;}
	.st265{fill:#95C467;}
	.st266{fill:#9CCB6E;}
	.st267{fill:#67A53E;}
	.st268{fill:#82B154;}
	.st269{fill:#91C063;}
	.st270{fill:#619C36;}
	.st271{fill:#90C060;}
	.st272{fill:#65A33C;}
	.st273{fill:#70AF46;}
	.st274{fill:#6FAE47;}
	.st275{fill:#96C767;}
	.st276{fill:#96C066;}
	.st277{fill:#62A13A;}
	.st278{fill:#5A9930;}
	.st279{fill:#89C760;}
	.st280{fill:#94C164;}
	.st281{fill:#709F41;}
	.st282{fill:#A0D271;}
	.st283{fill:#88B559;}
	.st284{fill:#55932C;}
	.st285{fill:#8DBF5F;}
	.st286{fill:#64A239;}
	.st287{fill:#72B34B;}
	.st288{fill:#72B049;}
	.st289{fill:#68A73E;}
	.st290{fill:#93C063;}
	.st291{fill:#6BA942;}
	.st292{fill:#76B249;}
	.st293{fill:#609E39;}
	.st294{fill:#84BF59;}
	.st295{fill:#508F25;}
	.st296{fill:#73B14A;}
	.st297{fill:#8EBB5C;}
	.st298{fill:#76B14B;}
	.st299{fill:#67A63C;}
	.st300{fill:#6CAF47;}
	.st301{fill:#9FCE71;}
	.st302{fill:#5D9933;}
	.st303{fill:#A6D578;}
	.st304{fill:#68A33D;}
	.st305{fill:#81BF56;}
	.st306{fill:#8CB95C;}
	.st307{fill:#88B557;}
	.st308{fill:#7DAE52;}
	.st309{fill:#77B551;}
	.st310{fill:#67AA44;}
	.st311{fill:#A3D071;}
	.st312{fill:#64A23D;}
	.st313{fill:#7AB851;}
	.st314{fill:#A0CC70;}
	.st315{fill:#5E9C35;}
	.st316{fill:#6BAE45;}
	.st317{fill:#4E8F25;}
	.st318{fill:#69A743;}
	.st319{fill:#7CBA53;}
	.st320{fill:#80AF52;}
	.st321{fill:#66A43D;}
	.st322{fill:#67A740;}
	.st323{fill:#73B14C;}
	.st324{fill:#74B04C;}
	.st325{fill:#5F9D36;}
	.st326{fill:#64A53D;}
	.st327{fill:#69AC43;}
	.st328{fill:#69AB45;}
	.st329{fill:#629D39;}
	.st330{fill:#5F9C31;}
	.st331{fill:#96C568;}
	.st332{fill:#9CC96C;}
	.st333{fill:#5D9B34;}
	.st334{fill:#7CBA55;}
	.st335{fill:#77A648;}
	.st336{fill:#6AAB43;}
	.st337{fill:#92BE64;}
	.st338{fill:#68A740;}
	.st339{fill:#82B355;}
	.st340{fill:#6AA03E;}
	.st341{fill:#81B252;}
	.st342{fill:#76B450;}
	.st343{fill:#66A53B;}
	.st344{fill:#A2CF72;}
	.st345{fill:#87B659;}
	.st346{fill:#86B557;}
	.st347{fill:#7FBB55;}
	.st348{fill:#57962C;}
	.st349{fill:#6EAF45;}
	.st350{fill:#8EBD5E;}
	.st351{fill:#9BCA6C;}
	.st352{fill:#99C969;}
	.st353{fill:#73B148;}
	.st354{fill:#93BE62;}
	.st355{fill:#8FBC62;}
	.st356{fill:#94C162;}
	.st357{fill:#73AF49;}
	.st358{fill:#65A33E;}
	.st359{fill:#92BF60;}
	.st360{fill:#85B456;}
	.st361{fill:#599732;}
	.st362{fill:#67AB42;}
	.st363{opacity:0.2;enable-background:new    ;}
	.st364{opacity:0.3;enable-background:new    ;}
</style>
<path class="st0" d="M556.5,479.3V139.1L278.2,0L0,139.1v340.2l278.2,139.2"/>
<polygon class="st1" points="0,139.1 0,202.9 17.4,211.6 17.4,190.3 34.8,199 34.8,220.3 69.6,237.7 69.6,259 86.9,267.6 
	86.9,203.9 104.3,212.6 104.3,255.1 121.7,263.8 121.7,242.5 139.1,251.2 139.1,293.7 156.5,302.4 156.5,281.2 173.9,289.9 
	173.9,311.1 191.3,319.8 191.3,298.6 208.7,307.3 208.7,286 226.1,294.7 226.1,316 260.8,333.4 260.8,312.1 278.2,320.8 
	278.2,278.3 "/>
<polygon class="st2" points="278.2,278.3 278.2,342.1 295.6,333.4 295.6,312.1 313,303.4 313,324.7 347.8,307.3 347.8,328.5 
	365.2,319.8 365.2,256 382.6,247.3 382.6,289.9 400,281.2 400,259.9 417.4,251.2 417.4,293.7 434.7,285 434.7,263.8 452.1,255.1 
	452.1,276.3 469.5,267.6 469.5,246.4 486.9,237.7 486.9,216.4 504.3,207.7 504.3,229 539.1,211.6 539.1,190.3 556.5,181.6 
	556.5,139.1 "/>
<g id="Layer_1_00000044172283384169905840000014705947092422192026_">
	<g>
		<polygon class="st3" points="104.3,255.1 104.3,233.8 86.9,225.1 86.9,246.4 		"/>
		<polygon class="st4" points="69.6,237.7 69.6,216.4 52.2,207.7 52.2,229 		"/>
		<polygon class="st5" points="121.7,455.1 121.7,476.4 139.1,485.1 139.1,463.8 		"/>
		<polygon class="st5" points="156.5,472.5 156.5,493.8 173.9,502.5 173.9,481.2 		"/>
		<polygon class="st6" points="139.1,463.8 139.1,485.1 156.5,493.8 156.5,472.5 		"/>
		<polygon class="st6" points="52.2,420.3 52.2,441.6 69.6,450.3 69.6,429 		"/>
		<polygon class="st7" points="208.7,477.4 226.1,486.1 226.1,464.8 208.7,456.1 		"/>
		<polygon class="st8" points="208.7,434.8 226.1,443.5 226.1,422.3 208.7,413.6 		"/>
		<polygon class="st9" points="173.9,481.2 173.9,502.5 191.3,511.2 191.3,489.9 		"/>
		<polygon class="st10" points="191.3,489.9 191.3,511.2 208.7,519.9 208.7,498.6 		"/>
		<polygon class="st11" points="208.7,498.6 226.1,507.3 226.1,486.1 208.7,477.4 		"/>
		<polygon class="st8" points="208.7,519.9 226.1,528.6 226.1,507.3 208.7,498.6 		"/>
		<polygon class="st12" points="139.1,293.7 139.1,272.5 121.7,263.8 121.7,285 		"/>
		<polygon class="st3" points="104.3,276.3 104.3,255.1 86.9,246.4 86.9,267.6 		"/>
		<polygon class="st8" points="208.7,413.6 226.1,422.3 226.1,401 208.7,392.3 		"/>
		<polygon class="st11" points="121.7,285 121.7,263.8 104.3,255.1 104.3,276.3 		"/>
		<polygon class="st13" points="173.9,311.1 173.9,289.9 156.5,281.2 156.5,302.4 		"/>
		<polygon class="st14" points="208.7,328.5 208.7,307.3 191.3,298.6 191.3,319.8 		"/>
		<polygon class="st15" points="191.3,319.8 191.3,298.6 173.9,289.9 173.9,311.1 		"/>
		<polygon class="st16" points="156.5,302.4 156.5,281.2 139.1,272.5 139.1,293.7 		"/>
		<polygon class="st17" points="69.6,344 52.2,335.3 52.2,356.6 69.6,365.3 		"/>
		<polygon class="st18" points="86.9,267.6 86.9,246.4 69.6,237.7 69.6,259 		"/>
		<polygon class="st19" points="69.6,259 52.2,250.3 52.2,271.5 69.6,280.2 		"/>
		<polygon class="st20" points="208.7,328.5 226.1,337.2 226.1,316 208.7,307.3 		"/>
		<polygon class="st21" points="52.2,335.3 34.8,326.6 34.8,347.9 52.2,356.6 		"/>
		<polygon class="st13" points="52.2,356.6 34.8,347.9 34.8,369.1 52.2,377.8 		"/>
		<polygon class="st6" points="52.2,399.1 34.8,390.4 34.8,411.6 52.2,420.3 		"/>
		<polygon class="st8" points="52.2,377.8 34.8,369.1 34.8,390.4 52.2,399.1 		"/>
		<polygon class="st22" points="52.2,314 34.8,305.3 34.8,326.6 52.2,335.3 69.6,344 69.6,322.7 		"/>
		<polygon class="st5" points="52.2,292.8 34.8,284.1 34.8,305.3 52.2,314 69.6,322.7 69.6,301.5 		"/>
		<polygon class="st23" points="104.3,467.7 104.3,489 121.7,497.7 121.7,476.4 		"/>
		<polygon class="st6" points="86.9,459 86.9,480.3 104.3,489 104.3,467.7 		"/>
		<polygon class="st24" points="52.2,271.5 52.2,250.3 34.8,241.6 34.8,262.8 34.8,284.1 52.2,292.8 69.6,301.5 69.6,280.2 		"/>
		<polygon class="st25" points="121.7,476.4 121.7,497.7 139.1,506.3 139.1,485.1 		"/>
		<polygon class="st5" points="139.1,485.1 139.1,506.3 156.5,515 156.5,493.8 		"/>
		<polygon class="st5" points="34.8,432.9 34.8,454.2 52.2,462.9 52.2,441.6 		"/>
		<polygon class="st11" points="69.6,450.3 69.6,471.6 86.9,480.3 86.9,459 		"/>
		<polygon class="st26" points="52.2,420.3 34.8,411.6 34.8,432.9 52.2,441.6 		"/>
		<polygon class="st27" points="156.5,281.2 156.5,259.9 139.1,251.2 139.1,272.5 		"/>
		<polygon class="st28" points="173.9,289.9 173.9,268.6 156.5,259.9 156.5,281.2 		"/>
		<polygon class="st29" points="191.3,298.6 191.3,277.3 173.9,268.6 173.9,289.9 		"/>
		<polygon class="st30" points="226.1,316 226.1,294.7 208.7,286 208.7,307.3 		"/>
		<polygon class="st31" points="208.7,307.3 208.7,286 191.3,277.3 191.3,298.6 		"/>
		<polygon class="st32" points="191.3,341.1 208.7,349.8 208.7,328.5 191.3,319.8 		"/>
		<polygon class="st5" points="208.7,371 226.1,379.7 226.1,358.5 208.7,349.8 		"/>
		<polygon class="st5" points="208.7,349.8 226.1,358.5 226.1,337.2 208.7,328.5 		"/>
		<polygon class="st33" points="86.9,246.4 86.9,225.1 69.6,216.4 69.6,237.7 		"/>
		<polygon class="st34" points="52.2,207.7 34.8,199 34.8,220.3 52.2,229 		"/>
		<polygon class="st13" points="52.2,229 34.8,220.3 34.8,241.6 52.2,250.3 69.6,259 69.6,237.7 		"/>
		<polygon class="st11" points="139.1,272.5 139.1,251.2 121.7,242.5 121.7,263.8 		"/>
		<polygon class="st5" points="208.7,392.3 226.1,401 226.1,379.7 208.7,371 		"/>
		<polygon class="st35" points="121.7,263.8 121.7,242.5 104.3,233.8 104.3,255.1 		"/>
		<polygon class="st36" points="52.2,441.6 52.2,462.9 69.6,471.6 69.6,450.3 		"/>
		<polygon class="st14" points="121.7,327.6 121.7,306.3 104.3,297.6 104.3,318.9 		"/>
		<polygon class="st26" points="104.3,340.1 86.9,331.4 86.9,352.7 104.3,361.4 		"/>
		<polygon class="st37" points="156.5,345 156.5,323.7 139.1,315 139.1,336.3 		"/>
		<polygon class="st38" points="139.1,336.3 139.1,315 121.7,306.3 121.7,327.6 		"/>
		<polygon class="st11" points="139.1,421.3 139.1,442.6 156.5,451.3 156.5,430 		"/>
		<polygon class="st39" points="104.3,382.6 86.9,374 86.9,395.2 104.3,403.9 		"/>
		<polygon class="st40" points="104.3,403.9 104.3,425.2 121.7,433.9 121.7,412.6 		"/>
		<polygon class="st41" points="104.3,361.4 86.9,352.7 86.9,374 104.3,382.6 		"/>
		<polygon class="st10" points="86.9,395.2 86.9,416.5 104.3,425.2 104.3,403.9 		"/>
		<polygon class="st42" points="121.7,391.3 121.7,412.6 139.1,421.3 139.1,400 		"/>
		<polygon class="st43" points="139.1,378.8 156.5,387.5 156.5,366.2 139.1,357.5 		"/>
		<polygon class="st44" points="156.5,366.2 156.5,345 139.1,336.3 139.1,357.5 		"/>
		<polygon class="st45" points="139.1,357.5 139.1,336.3 121.7,327.6 121.7,348.8 		"/>
		<polygon class="st5" points="139.1,400 156.5,408.7 156.5,387.5 139.1,378.8 		"/>
		<polygon class="st39" points="121.7,370.1 121.7,391.3 139.1,400 139.1,378.8 		"/>
		<polygon class="st10" points="156.5,430 173.9,438.7 173.9,417.4 156.5,408.7 		"/>
		<polygon class="st46" points="156.5,387.5 173.9,396.2 173.9,374.9 156.5,366.2 		"/>
		<polygon class="st5" points="139.1,400 139.1,421.3 156.5,430 156.5,408.7 		"/>
		<polygon class="st47" points="173.9,438.7 156.5,430 156.5,451.3 173.9,460 191.3,468.7 191.3,447.4 		"/>
		<polygon class="st5" points="121.7,348.8 121.7,327.6 104.3,318.9 86.9,310.2 86.9,331.4 104.3,340.1 104.3,361.4 104.3,382.6 
			121.7,391.3 121.7,370.1 139.1,378.8 139.1,357.5 		"/>
		<polygon class="st3" points="104.3,382.6 104.3,403.9 121.7,412.6 121.7,391.3 		"/>
		<polygon class="st48" points="139.1,442.6 139.1,463.8 156.5,472.5 156.5,451.3 		"/>
		<polygon class="st6" points="104.3,425.2 104.3,446.4 121.7,455.1 121.7,433.9 		"/>
		<polygon class="st25" points="121.7,412.6 121.7,433.9 121.7,455.1 139.1,463.8 139.1,442.6 139.1,421.3 		"/>
		<polygon class="st49" points="156.5,451.3 156.5,472.5 173.9,481.2 173.9,460 		"/>
		<polygon class="st50" points="191.3,362.4 208.7,371 208.7,349.8 191.3,341.1 		"/>
		<polygon class="st44" points="86.9,416.5 86.9,437.7 104.3,446.4 104.3,425.2 		"/>
		<polygon class="st44" points="69.6,386.5 52.2,377.8 52.2,399.1 69.6,407.8 86.9,416.5 86.9,395.2 		"/>
		<polygon class="st25" points="86.9,437.7 86.9,416.5 69.6,407.8 52.2,399.1 52.2,420.3 69.6,429 69.6,450.3 86.9,459 104.3,467.7 
			104.3,446.4 		"/>
		<polygon class="st51" points="173.9,460 173.9,481.2 191.3,489.9 191.3,468.7 		"/>
		<polygon class="st52" points="173.9,438.7 191.3,447.4 191.3,426.1 173.9,417.4 		"/>
		<polygon class="st5" points="191.3,489.9 208.7,498.6 208.7,477.4 191.3,468.7 		"/>
		<polygon class="st42" points="191.3,468.7 208.7,477.4 208.7,456.1 191.3,447.4 		"/>
		<polygon class="st53" points="191.3,447.4 208.7,456.1 208.7,434.8 191.3,426.1 		"/>
		<polygon class="st5" points="191.3,426.1 208.7,434.8 208.7,413.6 191.3,404.9 		"/>
		<polygon class="st11" points="191.3,341.1 191.3,319.8 173.9,311.1 173.9,332.4 		"/>
		<polygon class="st37" points="173.9,332.4 173.9,311.1 156.5,302.4 156.5,323.7 		"/>
		<polygon class="st11" points="156.5,323.7 156.5,302.4 139.1,293.7 139.1,315 		"/>
		<polygon class="st5" points="173.9,332.4 156.5,323.7 156.5,345 156.5,366.2 173.9,374.9 173.9,353.7 191.3,362.4 191.3,341.1 		
			"/>
		<polygon class="st54" points="69.6,344 69.6,365.3 52.2,356.6 52.2,377.8 69.6,386.5 86.9,395.2 86.9,374 86.9,352.7 		"/>
		<polygon class="st22" points="191.3,362.4 173.9,353.7 173.9,374.9 191.3,383.6 208.7,392.3 208.7,371 		"/>
		<polygon class="st55" points="191.3,383.6 173.9,374.9 173.9,396.2 156.5,387.5 156.5,408.7 173.9,417.4 191.3,426.1 191.3,404.9 
			208.7,413.6 208.7,392.3 		"/>
		<polygon class="st56" points="86.9,310.2 69.6,301.5 69.6,322.7 86.9,331.4 		"/>
		<polygon class="st25" points="86.9,331.4 69.6,322.7 69.6,344 86.9,352.7 		"/>
		<polygon class="st8" points="86.9,288.9 69.6,280.2 69.6,301.5 86.9,310.2 		"/>
		<polygon class="st52" points="121.7,285 104.3,276.3 104.3,297.6 121.7,306.3 139.1,315 139.1,293.7 		"/>
		<polygon class="st57" points="86.9,267.6 86.9,288.9 86.9,310.2 104.3,318.9 104.3,297.6 104.3,276.3 		"/>
		<polygon class="st58" points="86.9,267.6 69.6,259 69.6,280.2 86.9,288.9 		"/>
		<polygon class="st44" points="104.3,446.4 104.3,467.7 121.7,476.4 121.7,455.1 		"/>
		<polygon class="st50" points="17.4,211.6 0,202.9 0,224.2 17.4,232.9 		"/>
		<polygon class="st59" points="243.4,367.2 260.8,375.9 260.8,354.6 243.4,345.9 		"/>
		<polygon class="st60" points="17.4,190.3 0,181.6 0,202.9 17.4,211.6 		"/>
		<polygon class="st5" points="17.4,254.1 0,245.4 0,266.7 17.4,275.4 		"/>
		<polygon class="st61" points="17.4,147.8 0,139.1 0,160.4 17.4,169.1 		"/>
		<polygon class="st62" points="34.8,177.8 34.8,156.5 17.4,147.8 17.4,169.1 		"/>
		<polygon class="st63" points="17.4,169.1 0,160.4 0,181.6 17.4,190.3 		"/>
		<polygon class="st5" points="17.4,402.9 0,394.2 0,415.5 17.4,424.2 		"/>
		<polygon class="st6" points="17.4,424.2 0,415.5 0,436.8 17.4,445.5 		"/>
		<polygon class="st64" points="0,266.7 0,287.9 0,309.2 17.4,317.9 17.4,296.6 17.4,275.4 		"/>
		<polygon class="st65" points="52.2,186.5 52.2,165.2 34.8,156.5 34.8,177.8 		"/>
		<polygon class="st66" points="208.7,264.7 208.7,243.5 191.3,234.8 191.3,256 		"/>
		<polygon class="st4" points="243.4,282.1 243.4,260.9 226.1,252.2 226.1,273.4 		"/>
		<polygon class="st25" points="17.4,445.5 0,436.8 0,458 17.4,466.7 		"/>
		<polygon class="st67" points="260.8,290.8 260.8,269.6 243.4,260.9 243.4,282.1 		"/>
		<polygon class="st68" points="226.1,273.4 226.1,252.2 208.7,243.5 208.7,264.7 		"/>
		<polygon class="st50" points="243.4,345.9 260.8,354.6 260.8,333.4 243.4,324.7 		"/>
		<polygon class="st69" points="243.4,303.4 260.8,312.1 260.8,290.8 243.4,282.1 		"/>
		<polygon class="st70" points="243.4,324.7 260.8,333.4 260.8,312.1 243.4,303.4 		"/>
		<polygon class="st71" points="104.3,212.6 104.3,191.3 86.9,182.6 86.9,203.9 		"/>
		<polygon class="st72" points="69.6,195.2 69.6,173.9 52.2,165.2 52.2,186.5 		"/>
		<polygon class="st73" points="121.7,221.3 121.7,200 104.3,191.3 104.3,212.6 		"/>
		<polygon class="st74" points="86.9,203.9 86.9,182.6 69.6,173.9 69.6,195.2 		"/>
		<polygon class="st75" points="173.9,247.3 173.9,226.1 156.5,217.4 156.5,238.6 		"/>
		<polygon class="st76" points="139.1,230 139.1,208.7 121.7,200 121.7,221.3 		"/>
		<polygon class="st77" points="191.3,256 191.3,234.8 173.9,226.1 173.9,247.3 		"/>
		<polygon class="st78" points="156.5,238.6 156.5,217.4 139.1,208.7 139.1,230 		"/>
		<polygon class="st25" points="17.4,232.9 0,224.2 0,245.4 17.4,254.1 		"/>
		<polygon class="st25" points="260.8,482.2 278.2,490.9 278.2,469.6 260.8,460.9 		"/>
		<polygon class="st5" points="260.8,460.9 278.2,469.6 278.2,448.4 260.8,439.7 		"/>
		<polygon class="st8" points="260.8,503.5 278.2,512.2 278.2,490.9 260.8,482.2 		"/>
		<polygon class="st11" points="260.8,524.7 278.2,533.4 278.2,512.2 260.8,503.5 		"/>
		<polygon class="st79" points="260.8,312.1 278.2,320.8 278.2,299.5 260.8,290.8 		"/>
		<polygon class="st38" points="260.8,333.4 278.2,342.1 278.2,320.8 260.8,312.1 		"/>
		<polygon class="st76" points="260.8,269.6 260.8,290.8 278.2,299.5 278.2,278.3 		"/>
		<polygon class="st80" points="260.8,375.9 278.2,384.6 278.2,363.3 260.8,354.6 		"/>
		<polygon class="st19" points="260.8,397.1 278.2,405.8 278.2,384.6 260.8,375.9 		"/>
		<polygon class="st5" points="260.8,354.6 278.2,363.3 278.2,342.1 260.8,333.4 		"/>
		<polygon class="st25" points="0,458 0,479.3 17.4,488 17.4,466.7 		"/>
		<polygon class="st5" points="86.9,501.5 86.9,522.8 104.3,531.5 104.3,510.2 		"/>
		<polygon class="st81" points="104.3,510.2 104.3,531.5 121.7,540.2 121.7,518.9 		"/>
		<polygon class="st10" points="17.4,466.7 17.4,488 34.8,496.7 34.8,475.4 		"/>
		<polygon class="st55" points="69.6,492.8 52.2,484.1 52.2,505.4 69.6,514.1 86.9,522.8 86.9,501.5 		"/>
		<polygon class="st44" points="34.8,475.4 34.8,496.7 52.2,505.4 52.2,484.1 		"/>
		<polygon class="st25" points="208.7,562.4 208.7,583.7 226.1,592.4 226.1,571.1 		"/>
		<polygon class="st82" points="226.1,571.1 226.1,592.4 243.4,601.1 243.4,579.8 		"/>
		<polygon class="st83" points="243.4,579.8 243.4,601.1 260.8,609.8 260.8,588.5 		"/>
		<polygon class="st84" points="156.5,536.3 139.1,527.6 121.7,518.9 121.7,540.2 139.1,548.9 156.5,557.6 173.9,566.3 173.9,545 		
			"/>
		<polygon class="st13" points="260.8,609.8 278.2,618.5 278.2,597.2 260.8,588.5 		"/>
		<polygon class="st36" points="191.3,553.7 191.3,575 208.7,583.7 208.7,562.4 		"/>
		<polygon class="st52" points="173.9,545 173.9,566.3 191.3,575 191.3,553.7 		"/>
		<polygon class="st6" points="243.4,516 260.8,524.7 260.8,503.5 243.4,494.8 		"/>
		<polygon class="st76" points="243.4,303.4 243.4,282.1 226.1,273.4 226.1,294.7 		"/>
		<polygon class="st85" points="173.9,268.6 173.9,247.3 156.5,238.6 156.5,259.9 		"/>
		<polygon class="st86" points="139.1,251.2 139.1,230 121.7,221.3 121.7,242.5 		"/>
		<polygon class="st87" points="121.7,242.5 121.7,221.3 104.3,212.6 104.3,233.8 		"/>
		<polygon class="st20" points="34.8,241.6 17.4,232.9 17.4,254.1 34.8,262.8 		"/>
		<polygon class="st88" points="226.1,294.7 226.1,273.4 208.7,264.7 208.7,286 		"/>
		<polygon class="st89" points="208.7,286 208.7,264.7 191.3,256 191.3,277.3 		"/>
		<polygon class="st90" points="156.5,259.9 156.5,238.6 139.1,230 139.1,251.2 		"/>
		<polygon class="st13" points="34.8,199 17.4,190.3 17.4,211.6 34.8,220.3 		"/>
		<polygon class="st77" points="34.8,177.8 17.4,169.1 17.4,190.3 34.8,199 		"/>
		<polygon class="st48" points="34.8,220.3 17.4,211.6 17.4,232.9 34.8,241.6 		"/>
		<polygon class="st91" points="52.2,207.7 52.2,186.5 34.8,177.8 34.8,199 		"/>
		<polygon class="st11" points="104.3,233.8 104.3,212.6 86.9,203.9 86.9,225.1 		"/>
		<polygon class="st92" points="86.9,225.1 86.9,203.9 69.6,195.2 69.6,216.4 		"/>
		<polygon class="st93" points="69.6,216.4 69.6,195.2 52.2,186.5 52.2,207.7 		"/>
		<polygon class="st94" points="191.3,277.3 191.3,256 173.9,247.3 173.9,268.6 		"/>
		<polygon class="st95" points="226.1,549.8 243.4,558.5 243.4,537.3 226.1,528.6 		"/>
		<polygon class="st25" points="226.1,486.1 243.4,494.8 243.4,473.5 226.1,464.8 		"/>
		<polygon class="st49" points="226.1,507.3 243.4,516 243.4,494.8 226.1,486.1 		"/>
		<polygon class="st20" points="226.1,528.6 243.4,537.3 243.4,516 226.1,507.3 		"/>
		<polygon class="st96" points="208.7,519.9 208.7,541.1 226.1,549.8 226.1,528.6 		"/>
		<polygon class="st44" points="173.9,502.5 173.9,523.7 191.3,532.4 191.3,511.2 		"/>
		<polygon class="st11" points="191.3,511.2 191.3,532.4 208.7,541.1 208.7,519.9 		"/>
		<polygon class="st54" points="226.1,379.7 243.4,388.4 243.4,367.2 226.1,358.5 		"/>
		<polygon class="st23" points="226.1,358.5 243.4,367.2 243.4,345.9 226.1,337.2 		"/>
		<polygon class="st47" points="226.1,443.5 208.7,434.8 208.7,456.1 226.1,464.8 243.4,473.5 243.4,452.2 		"/>
		<polygon class="st11" points="226.1,337.2 243.4,345.9 243.4,324.7 226.1,316 		"/>
		<polygon class="st97" points="226.1,316 243.4,324.7 243.4,303.4 226.1,294.7 		"/>
		<polygon class="st98" points="226.1,401 243.4,409.7 243.4,388.4 226.1,379.7 		"/>
		<polygon class="st5" points="226.1,443.5 243.4,452.2 243.4,431 226.1,422.3 		"/>
		<polygon class="st5" points="226.1,422.3 243.4,431 243.4,409.7 226.1,401 		"/>
		<polygon class="st39" points="121.7,497.7 121.7,518.9 139.1,527.6 139.1,506.3 		"/>
		<polygon class="st5" points="226.1,549.8 226.1,571.1 243.4,579.8 243.4,558.5 		"/>
		<polygon class="st5" points="208.7,541.1 208.7,562.4 226.1,571.1 226.1,549.8 		"/>
		<polygon class="st3" points="191.3,532.4 191.3,553.7 208.7,562.4 208.7,541.1 		"/>
		<polygon class="st5" points="156.5,515 156.5,536.3 173.9,545 173.9,523.7 		"/>
		<polygon class="st20" points="139.1,506.3 139.1,527.6 156.5,536.3 156.5,515 		"/>
		<polygon class="st5" points="173.9,523.7 173.9,545 191.3,553.7 191.3,532.4 		"/>
		<polygon class="st39" points="243.4,452.2 260.8,460.9 260.8,439.7 243.4,431 		"/>
		<polygon class="st25" points="260.8,397.1 260.8,418.4 243.4,409.7 243.4,431 260.8,439.7 278.2,448.4 278.2,427.1 278.2,405.8 		
			"/>
		<polygon class="st8" points="243.4,409.7 260.8,418.4 260.8,397.1 243.4,388.4 		"/>
		<polygon class="st11" points="156.5,493.8 156.5,515 173.9,523.7 173.9,502.5 		"/>
		<polygon class="st95" points="260.8,524.7 243.4,516 243.4,537.3 260.8,546 278.2,554.7 278.2,533.4 		"/>
		<polygon class="st5" points="243.4,473.5 260.8,482.2 260.8,460.9 243.4,452.2 		"/>
		<polygon class="st99" points="243.4,494.8 260.8,503.5 260.8,482.2 243.4,473.5 		"/>
		<polygon class="st25" points="260.8,546 243.4,537.3 243.4,558.5 243.4,579.8 260.8,588.5 278.2,597.2 278.2,575.9 278.2,554.7 		
			"/>
		<polygon class="st5" points="34.8,390.4 17.4,381.7 17.4,402.9 34.8,411.6 		"/>
		<polygon class="st26" points="17.4,339.2 17.4,317.9 0,309.2 0,330.5 0,351.7 0,373 0,394.2 17.4,402.9 17.4,381.7 34.8,390.4 
			34.8,369.1 34.8,347.9 		"/>
		<polygon class="st39" points="34.8,411.6 17.4,402.9 17.4,424.2 34.8,432.9 		"/>
		<polygon class="st11" points="17.4,254.1 17.4,275.4 17.4,296.6 34.8,305.3 34.8,284.1 34.8,262.8 		"/>
		<polygon class="st5" points="34.8,305.3 17.4,296.6 17.4,317.9 34.8,326.6 		"/>
		<polygon class="st10" points="34.8,326.6 17.4,317.9 17.4,339.2 34.8,347.9 		"/>
		<polygon class="st100" points="69.6,471.6 69.6,492.8 86.9,501.5 86.9,480.3 		"/>
		<polygon class="st58" points="86.9,480.3 86.9,501.5 104.3,510.2 104.3,489 		"/>
		<polygon class="st52" points="104.3,489 104.3,510.2 121.7,518.9 121.7,497.7 		"/>
		<polygon class="st10" points="243.4,388.4 260.8,397.1 260.8,375.9 243.4,367.2 		"/>
		<polygon class="st10" points="17.4,445.5 17.4,466.7 34.8,475.4 34.8,454.2 		"/>
		<polygon class="st23" points="34.8,432.9 17.4,424.2 17.4,445.5 34.8,454.2 		"/>
		<polygon class="st11" points="34.8,454.2 34.8,475.4 52.2,484.1 52.2,462.9 		"/>
		<polygon class="st22" points="52.2,462.9 52.2,484.1 69.6,492.8 69.6,471.6 		"/>
	</g>
	<g>
		<polygon class="st101" points="434.7,455.1 434.7,476.4 417.4,485.1 417.4,463.8 		"/>
		<polygon class="st102" points="400,472.5 400,493.8 382.6,502.5 382.6,481.2 		"/>
		<polygon class="st103" points="417.4,463.8 417.4,485.1 400,493.8 400,472.5 		"/>
		<polygon class="st104" points="469.5,437.7 469.5,459 452.1,467.7 452.1,446.4 		"/>
		<polygon class="st101" points="486.9,429 486.9,450.3 469.5,459 469.5,437.7 		"/>
		<polygon class="st105" points="486.9,407.8 504.3,399.1 504.3,420.3 486.9,429 		"/>
		<polygon class="st101" points="504.3,420.3 504.3,441.6 486.9,450.3 486.9,429 		"/>
		<polygon class="st106" points="347.8,477.4 330.4,486.1 330.4,464.8 347.8,456.1 		"/>
		<polygon class="st101" points="347.8,456.1 330.4,464.8 330.4,443.5 347.8,434.8 		"/>
		<polygon class="st107" points="347.8,434.8 330.4,443.5 330.4,422.3 347.8,413.6 		"/>
		<polygon class="st108" points="486.9,386.5 504.3,377.8 504.3,399.1 486.9,407.8 		"/>
		<polygon class="st109" points="382.6,481.2 382.6,502.5 365.2,511.2 365.2,489.9 		"/>
		<polygon class="st109" points="365.2,489.9 365.2,511.2 347.8,519.9 347.8,498.6 		"/>
		<polygon class="st109" points="347.8,498.6 330.4,507.3 330.4,486.1 347.8,477.4 		"/>
		<polygon class="st104" points="347.8,519.9 330.4,528.6 330.4,507.3 347.8,498.6 		"/>
		<polygon class="st110" points="417.4,293.7 417.4,272.5 434.7,263.8 434.7,285 		"/>
		<polygon class="st111" points="452.1,276.3 452.1,255.1 469.5,246.4 469.5,267.6 		"/>
		<polygon class="st112" points="347.8,413.6 330.4,422.3 330.4,401 347.8,392.3 		"/>
		<polygon class="st113" points="434.7,285 434.7,263.8 452.1,255.1 452.1,276.3 		"/>
		<polygon class="st102" points="486.9,365.3 504.3,356.6 504.3,377.8 486.9,386.5 		"/>
		<polygon class="st105" points="382.6,311.1 382.6,289.9 400,281.2 400,302.4 		"/>
		<polygon class="st114" points="347.8,328.5 347.8,307.3 365.2,298.6 365.2,319.8 		"/>
		<polygon class="st115" points="365.2,319.8 365.2,298.6 382.6,289.9 382.6,311.1 		"/>
		<polygon class="st105" points="400,302.4 400,281.2 417.4,272.5 417.4,293.7 		"/>
		<polygon class="st101" points="486.9,301.5 504.3,292.8 504.3,314 486.9,322.7 		"/>
		<polygon class="st116" points="486.9,322.7 504.3,314 504.3,335.3 486.9,344 		"/>
		<polygon class="st103" points="486.9,344 504.3,335.3 504.3,356.6 486.9,365.3 		"/>
		<polygon class="st117" points="486.9,237.7 504.3,229 504.3,250.3 486.9,259 		"/>
		<polygon class="st118" points="486.9,280.2 504.3,271.5 504.3,292.8 486.9,301.5 		"/>
		<polygon class="st115" points="469.5,267.6 469.5,246.4 486.9,237.7 486.9,259 		"/>
		<polygon class="st101" points="486.9,259 504.3,250.3 504.3,271.5 486.9,280.2 		"/>
		<polygon class="st115" points="347.8,328.5 330.4,337.2 330.4,316 347.8,307.3 		"/>
		<polygon class="st119" points="504.3,335.3 521.7,326.6 521.7,347.9 504.3,356.6 		"/>
		<polygon class="st120" points="504.3,356.6 521.7,347.9 521.7,369.1 504.3,377.8 		"/>
		<polygon class="st121" points="504.3,399.1 521.7,390.4 521.7,411.6 504.3,420.3 		"/>
		<polygon class="st122" points="504.3,377.8 521.7,369.1 521.7,390.4 504.3,399.1 		"/>
		<polygon class="st101" points="504.3,271.5 521.7,262.8 521.7,284.1 504.3,292.8 		"/>
		<polygon class="st101" points="504.3,314 521.7,305.3 521.7,326.6 504.3,335.3 		"/>
		<polygon class="st123" points="504.3,292.8 521.7,284.1 521.7,305.3 504.3,314 		"/>
		<polygon class="st115" points="452.1,467.7 452.1,489 434.7,497.7 434.7,476.4 		"/>
		<polygon class="st124" points="469.5,459 469.5,480.3 452.1,489 452.1,467.7 		"/>
		<polygon class="st122" points="504.3,250.3 521.7,241.6 521.7,262.8 504.3,271.5 		"/>
		<polygon class="st118" points="434.7,476.4 434.7,497.7 417.4,506.3 417.4,485.1 		"/>
		<polygon class="st109" points="417.4,485.1 417.4,506.3 400,515 400,493.8 		"/>
		<polygon class="st112" points="521.7,432.9 521.7,454.2 504.3,462.9 504.3,441.6 		"/>
		<polygon class="st115" points="486.9,450.3 486.9,471.6 469.5,480.3 469.5,459 		"/>
		<polygon class="st125" points="504.3,420.3 521.7,411.6 521.7,432.9 504.3,441.6 		"/>
		<polygon class="st115" points="400,281.2 400,259.9 417.4,251.2 417.4,272.5 		"/>
		<polygon class="st126" points="382.6,289.9 382.6,268.6 400,259.9 400,281.2 		"/>
		<polygon class="st115" points="365.2,298.6 365.2,277.3 382.6,268.6 382.6,289.9 		"/>
		<polygon class="st127" points="330.4,316 330.4,294.7 347.8,286 347.8,307.3 		"/>
		<polygon class="st128" points="347.8,307.3 347.8,286 365.2,277.3 365.2,298.6 		"/>
		<polygon class="st105" points="365.2,341.1 347.8,349.8 347.8,328.5 365.2,319.8 		"/>
		<polygon class="st123" points="347.8,371 330.4,379.7 330.4,358.5 347.8,349.8 		"/>
		<polygon class="st129" points="347.8,349.8 330.4,358.5 330.4,337.2 347.8,328.5 		"/>
		<polygon class="st130" points="469.5,246.4 469.5,225.1 486.9,216.4 486.9,237.7 		"/>
		<polygon class="st113" points="486.9,237.7 486.9,216.4 504.3,207.7 504.3,229 		"/>
		<polygon class="st131" points="504.3,207.7 521.7,199 521.7,220.3 504.3,229 		"/>
		<polygon class="st132" points="504.3,229 521.7,220.3 521.7,241.6 504.3,250.3 		"/>
		<polygon class="st133" points="417.4,272.5 417.4,251.2 434.7,242.5 434.7,263.8 		"/>
		<polygon class="st134" points="452.1,255.1 452.1,233.8 469.5,225.1 469.5,246.4 		"/>
		<polygon class="st101" points="347.8,392.3 330.4,401 330.4,379.7 347.8,371 		"/>
		<polygon class="st135" points="434.7,263.8 434.7,242.5 452.1,233.8 452.1,255.1 		"/>
		<polygon class="st136" points="504.3,441.6 504.3,462.9 486.9,471.6 486.9,450.3 		"/>
		<polygon class="st101" points="452.1,297.6 469.5,288.9 469.5,310.2 452.1,318.9 		"/>
		<polygon class="st112" points="452.1,318.9 469.5,310.2 469.5,331.4 452.1,340.1 		"/>
		<polygon class="st101" points="434.7,327.6 434.7,306.3 452.1,297.6 452.1,318.9 		"/>
		<polygon class="st104" points="400,366.2 382.6,374.9 382.6,353.7 400,345 		"/>
		<polygon class="st121" points="452.1,340.1 469.5,331.4 469.5,352.7 452.1,361.4 		"/>
		<polygon class="st115" points="382.6,353.7 382.6,332.4 400,323.7 400,345 		"/>
		<polygon class="st137" points="400,345 400,323.7 417.4,315 417.4,336.3 		"/>
		<polygon class="st137" points="417.4,336.3 417.4,315 434.7,306.3 434.7,327.6 		"/>
		<polygon class="st138" points="417.4,421.3 417.4,442.6 400,451.3 400,430 		"/>
		<polygon class="st106" points="400,430 400,451.3 382.6,460 382.6,438.7 		"/>
		<polygon class="st105" points="434.7,412.6 434.7,433.9 417.4,442.6 417.4,421.3 		"/>
		<polygon class="st101" points="452.1,382.6 469.5,374 469.5,395.2 452.1,403.9 		"/>
		<polygon class="st102" points="452.1,403.9 452.1,425.2 434.7,433.9 434.7,412.6 		"/>
		<polygon class="st109" points="452.1,361.4 469.5,352.7 469.5,374 452.1,382.6 		"/>
		<polygon class="st102" points="469.5,395.2 469.5,416.5 452.1,425.2 452.1,403.9 		"/>
		<polygon class="st118" points="434.7,391.3 434.7,412.6 417.4,421.3 417.4,400 		"/>
		<polygon class="st101" points="417.4,378.8 400,387.5 400,366.2 417.4,357.5 		"/>
		<polygon class="st139" points="400,366.2 400,345 417.4,336.3 417.4,357.5 		"/>
		<polygon class="st129" points="417.4,357.5 417.4,336.3 434.7,327.6 434.7,348.8 		"/>
		<polygon class="st140" points="417.4,400 400,408.7 400,387.5 417.4,378.8 		"/>
		<polygon class="st107" points="417.4,357.5 434.7,348.8 434.7,370.1 417.4,378.8 		"/>
		<polygon class="st101" points="434.7,370.1 434.7,391.3 417.4,400 417.4,378.8 		"/>
		<polygon class="st101" points="434.7,327.6 452.1,318.9 452.1,340.1 434.7,348.8 		"/>
		<polygon class="st113" points="400,430 382.6,438.7 382.6,417.4 400,408.7 		"/>
		<polygon class="st101" points="400,387.5 382.6,396.2 382.6,374.9 400,366.2 		"/>
		<polygon class="st115" points="434.7,348.8 452.1,340.1 452.1,361.4 434.7,370.1 		"/>
		<polygon class="st141" points="400,408.7 382.6,417.4 382.6,396.2 400,387.5 		"/>
		<polygon class="st116" points="417.4,400 417.4,421.3 400,430 400,408.7 		"/>
		<polygon class="st116" points="382.6,460 365.2,468.7 365.2,447.4 382.6,438.7 		"/>
		<polygon class="st109" points="434.7,370.1 452.1,361.4 452.1,382.6 434.7,391.3 		"/>
		<polygon class="st101" points="452.1,382.6 452.1,403.9 434.7,412.6 434.7,391.3 		"/>
		<polygon class="st142" points="417.4,442.6 417.4,463.8 400,472.5 400,451.3 		"/>
		<polygon class="st143" points="452.1,425.2 452.1,446.4 434.7,455.1 434.7,433.9 		"/>
		<polygon class="st144" points="434.7,433.9 434.7,455.1 417.4,463.8 417.4,442.6 		"/>
		<polygon class="st145" points="400,451.3 400,472.5 382.6,481.2 382.6,460 		"/>
		<polygon class="st101" points="365.2,362.4 347.8,371 347.8,349.8 365.2,341.1 		"/>
		<polygon class="st123" points="469.5,416.5 469.5,437.7 452.1,446.4 452.1,425.2 		"/>
		<polygon class="st104" points="469.5,395.2 486.9,386.5 486.9,407.8 469.5,416.5 		"/>
		<polygon class="st101" points="469.5,374 486.9,365.3 486.9,386.5 469.5,395.2 		"/>
		<polygon class="st101" points="486.9,407.8 486.9,429 469.5,437.7 469.5,416.5 		"/>
		<polygon class="st121" points="365.2,404.9 347.8,413.6 347.8,392.3 365.2,383.6 		"/>
		<polygon class="st106" points="382.6,460 382.6,481.2 365.2,489.9 365.2,468.7 		"/>
		<polygon class="st146" points="365.2,383.6 347.8,392.3 347.8,371 365.2,362.4 		"/>
		<polygon class="st113" points="382.6,438.7 365.2,447.4 365.2,426.1 382.6,417.4 		"/>
		<polygon class="st109" points="365.2,489.9 347.8,498.6 347.8,477.4 365.2,468.7 		"/>
		<polygon class="st112" points="365.2,468.7 347.8,477.4 347.8,456.1 365.2,447.4 		"/>
		<polygon class="st101" points="365.2,447.4 347.8,456.1 347.8,434.8 365.2,426.1 		"/>
		<polygon class="st101" points="365.2,426.1 347.8,434.8 347.8,413.6 365.2,404.9 		"/>
		<polygon class="st147" points="365.2,341.1 365.2,319.8 382.6,311.1 382.6,332.4 		"/>
		<polygon class="st101" points="382.6,332.4 382.6,311.1 400,302.4 400,323.7 		"/>
		<polygon class="st118" points="400,323.7 400,302.4 417.4,293.7 417.4,315 		"/>
		<polygon class="st109" points="382.6,353.7 365.2,362.4 365.2,341.1 382.6,332.4 		"/>
		<polygon class="st104" points="469.5,352.7 486.9,344 486.9,365.3 469.5,374 		"/>
		<polygon class="st107" points="382.6,396.2 365.2,404.9 365.2,383.6 382.6,374.9 		"/>
		<polygon class="st104" points="382.6,374.9 365.2,383.6 365.2,362.4 382.6,353.7 		"/>
		<polygon class="st121" points="382.6,417.4 365.2,426.1 365.2,404.9 382.6,396.2 		"/>
		<polygon class="st112" points="469.5,310.2 486.9,301.5 486.9,322.7 469.5,331.4 		"/>
		<polygon class="st123" points="469.5,331.4 486.9,322.7 486.9,344 469.5,352.7 		"/>
		<polygon class="st113" points="469.5,288.9 486.9,280.2 486.9,301.5 469.5,310.2 		"/>
		<polygon class="st113" points="417.4,315 417.4,293.7 434.7,285 434.7,306.3 		"/>
		<polygon class="st115" points="434.7,306.3 434.7,285 452.1,276.3 452.1,297.6 		"/>
		<polygon class="st148" points="452.1,297.6 452.1,276.3 469.5,267.6 469.5,288.9 		"/>
		<polygon class="st149" points="469.5,267.6 486.9,259 486.9,280.2 469.5,288.9 		"/>
		<polygon class="st104" points="452.1,446.4 452.1,467.7 434.7,476.4 434.7,455.1 		"/>
		<polygon class="st101" points="539.1,211.6 556.5,202.9 556.5,224.2 539.1,232.9 		"/>
		<polygon class="st103" points="313,367.2 295.6,375.9 295.6,354.6 313,345.9 		"/>
		<polygon class="st132" points="539.1,190.3 556.5,181.6 556.5,202.9 539.1,211.6 		"/>
		<polygon class="st106" points="539.1,254.1 556.5,245.4 556.5,266.7 539.1,275.4 		"/>
		<polygon class="st150" points="539.1,147.8 556.5,139.1 556.5,160.4 539.1,169.1 		"/>
		<polygon class="st151" points="521.7,177.8 521.7,156.5 539.1,147.8 539.1,169.1 		"/>
		<polygon class="st152" points="539.1,169.1 556.5,160.4 556.5,181.6 539.1,190.3 		"/>
		<polygon class="st109" points="539.1,275.4 556.5,266.7 556.5,287.9 539.1,296.6 		"/>
		<polygon class="st103" points="539.1,360.4 556.5,351.7 556.5,373 539.1,381.7 		"/>
		<polygon class="st102" points="539.1,402.9 556.5,394.2 556.5,415.5 539.1,424.2 		"/>
		<polygon class="st132" points="539.1,381.7 556.5,373 556.5,394.2 539.1,402.9 		"/>
		<polygon class="st138" points="539.1,424.2 556.5,415.5 556.5,436.8 539.1,445.5 		"/>
		<polygon class="st109" points="539.1,296.6 556.5,287.9 556.5,309.2 539.1,317.9 		"/>
		<polygon class="st116" points="539.1,317.9 556.5,309.2 556.5,330.5 539.1,339.2 		"/>
		<polygon class="st153" points="539.1,339.2 556.5,330.5 556.5,351.7 539.1,360.4 		"/>
		<polygon class="st154" points="504.3,186.5 504.3,165.2 521.7,156.5 521.7,177.8 		"/>
		<polygon class="st155" points="347.8,264.7 347.8,243.5 365.2,234.8 365.2,256 		"/>
		<polygon class="st114" points="313,282.1 313,260.9 330.4,252.2 330.4,273.4 		"/>
		<polygon class="st109" points="539.1,445.5 556.5,436.8 556.5,458 539.1,466.7 		"/>
		<polygon class="st156" points="295.6,290.8 295.6,269.6 313,260.9 313,282.1 		"/>
		<polygon class="st157" points="330.4,273.4 330.4,252.2 347.8,243.5 347.8,264.7 		"/>
		<polygon class="st158" points="313,345.9 295.6,354.6 295.6,333.4 313,324.7 		"/>
		<polygon class="st159" points="313,303.4 295.6,312.1 295.6,290.8 313,282.1 		"/>
		<polygon class="st113" points="313,324.7 295.6,333.4 295.6,312.1 313,303.4 		"/>
		<polygon class="st152" points="452.1,212.6 452.1,191.3 469.5,182.6 469.5,203.9 		"/>
		<polygon class="st160" points="486.9,195.2 486.9,173.9 504.3,165.2 504.3,186.5 		"/>
		<polygon class="st161" points="434.7,221.3 434.8,200 452.1,191.3 452.1,212.6 		"/>
		<polygon class="st127" points="469.5,203.9 469.5,182.6 486.9,173.9 486.9,195.2 		"/>
		<polygon class="st162" points="382.6,247.3 382.6,226.1 400,217.4 400,238.6 		"/>
		<polygon class="st163" points="417.4,230 417.4,208.7 434.8,200 434.7,221.3 		"/>
		<polygon class="st126" points="365.2,256 365.2,234.8 382.6,226.1 382.6,247.3 		"/>
		<polygon class="st159" points="400,238.6 400,217.4 417.4,208.7 417.4,230 		"/>
		<polygon class="st101" points="539.1,232.9 556.5,224.2 556.5,245.4 539.1,254.1 		"/>
		<polygon class="st109" points="295.6,482.2 278.2,490.9 278.2,469.6 295.6,460.9 		"/>
		<polygon class="st112" points="295.6,439.7 278.2,448.4 278.2,427.1 295.6,418.4 		"/>
		<polygon class="st109" points="295.6,460.9 278.2,469.6 278.2,448.4 295.6,439.7 		"/>
		<polygon class="st121" points="295.6,503.5 278.2,512.2 278.2,490.9 295.6,482.2 		"/>
		<polygon class="st116" points="295.6,567.2 278.2,575.9 278.2,554.7 295.6,546 		"/>
		<polygon class="st101" points="295.6,546 278.2,554.7 278.2,533.4 295.6,524.7 		"/>
		<polygon class="st164" points="295.6,524.7 278.2,533.4 278.2,512.2 295.6,503.5 		"/>
		<polygon class="st165" points="295.6,418.4 278.2,427.1 278.2,405.8 295.6,397.1 		"/>
		<polygon class="st166" points="295.6,312.1 278.2,320.8 278.2,299.5 295.6,290.8 		"/>
		<polygon class="st167" points="295.6,333.4 278.2,342.1 278.2,320.8 295.6,312.1 		"/>
		<polygon class="st133" points="295.6,269.6 295.6,290.8 278.2,299.5 278.2,278.3 		"/>
		<polygon class="st168" points="295.6,375.9 278.2,384.6 278.2,363.3 295.6,354.6 		"/>
		<polygon class="st101" points="295.6,397.1 278.2,405.8 278.2,384.6 295.6,375.9 		"/>
		<polygon class="st169" points="295.6,354.6 278.2,363.3 278.2,342.1 295.6,333.4 		"/>
		<polygon class="st123" points="295.6,588.5 278.2,597.2 278.2,575.9 295.6,567.2 		"/>
		<polygon class="st115" points="556.5,458 556.5,479.3 539.1,488 539.1,466.7 		"/>
		<polygon class="st103" points="469.5,501.5 469.5,522.8 452.1,531.5 452.1,510.2 		"/>
		<polygon class="st116" points="486.9,492.8 486.9,514.1 469.5,522.8 469.5,501.5 		"/>
		<polygon class="st147" points="452.1,510.2 452.1,531.5 434.7,540.2 434.7,518.9 		"/>
		<polygon class="st101" points="539.1,466.7 539.1,488 521.7,496.7 521.7,475.4 		"/>
		<polygon class="st109" points="504.3,484.1 504.3,505.4 486.9,514.1 486.9,492.8 		"/>
		<polygon class="st123" points="434.7,518.9 434.7,540.2 417.4,548.9 417.4,527.6 		"/>
		<polygon class="st109" points="521.7,475.4 521.7,496.7 504.3,505.4 504.3,484.1 		"/>
		<polygon class="st170" points="400,536.3 400,557.6 382.6,566.3 382.6,545 		"/>
		<polygon class="st109" points="347.8,562.4 347.8,583.7 330.4,592.4 330.4,571.1 		"/>
		<polygon class="st129" points="330.4,571.1 330.4,592.4 313,601.1 313,579.8 		"/>
		<polygon class="st104" points="313,579.8 313,601.1 295.6,609.8 295.6,588.5 		"/>
		<polygon class="st171" points="417.4,527.6 417.4,548.9 400,557.6 400,536.3 		"/>
		<polygon class="st122" points="295.6,609.8 278.2,618.5 278.2,597.2 295.6,588.5 		"/>
		<polygon class="st109" points="365.2,553.7 365.2,575 347.8,583.7 347.8,562.4 		"/>
		<polygon class="st104" points="382.6,545 382.6,566.3 365.2,575 365.2,553.7 		"/>
		<polygon class="st136" points="313,516 295.6,524.7 295.6,503.5 313,494.8 		"/>
		<polygon class="st172" points="313,303.4 313,282.1 330.4,273.4 330.4,294.7 		"/>
		<polygon class="st173" points="382.6,268.6 382.6,247.3 400,238.6 400,259.9 		"/>
		<polygon class="st174" points="417.4,251.2 417.4,230 434.7,221.3 434.7,242.5 		"/>
		<polygon class="st175" points="434.7,242.5 434.7,221.3 452.1,212.6 452.1,233.8 		"/>
		<polygon class="st137" points="521.7,241.6 539.1,232.9 539.1,254.1 521.7,262.8 		"/>
		<polygon class="st176" points="330.4,294.7 330.4,273.4 347.8,264.7 347.8,286 		"/>
		<polygon class="st177" points="347.8,286 347.8,264.7 365.2,256 365.2,277.3 		"/>
		<polygon class="st154" points="400,259.9 400,238.6 417.4,230 417.4,251.2 		"/>
		<polygon class="st178" points="521.7,199 539.1,190.3 539.1,211.6 521.7,220.3 		"/>
		<polygon class="st155" points="521.7,177.8 539.1,169.1 539.1,190.3 521.7,199 		"/>
		<polygon class="st179" points="521.7,220.3 539.1,211.6 539.1,232.9 521.7,241.6 		"/>
		<polygon class="st180" points="504.3,207.7 504.3,186.5 521.7,177.8 521.7,199 		"/>
		<polygon class="st181" points="452.1,233.8 452.1,212.6 469.5,203.9 469.5,225.1 		"/>
		<polygon class="st182" points="469.5,225.1 469.5,203.9 486.9,195.2 486.9,216.4 		"/>
		<polygon class="st183" points="486.9,216.4 486.9,195.2 504.3,186.5 504.3,207.7 		"/>
		<polygon class="st115" points="365.2,277.3 365.2,256 382.6,247.3 382.6,268.6 		"/>
		<polygon class="st118" points="330.4,549.8 313,558.5 313,537.3 330.4,528.6 		"/>
		<polygon class="st125" points="330.4,486.1 313,494.8 313,473.5 330.4,464.8 		"/>
		<polygon class="st145" points="330.4,507.3 313,516 313,494.8 330.4,486.1 		"/>
		<polygon class="st138" points="330.4,528.6 313,537.3 313,516 330.4,507.3 		"/>
		<polygon class="st116" points="347.8,519.9 347.8,541.1 330.4,549.8 330.4,528.6 		"/>
		<polygon class="st101" points="382.6,502.5 382.6,523.7 365.2,532.4 365.2,511.2 		"/>
		<polygon class="st184" points="365.2,511.2 365.2,532.4 347.8,541.1 347.8,519.9 		"/>
		<polygon class="st109" points="330.4,379.7 313,388.4 313,367.2 330.4,358.5 		"/>
		<polygon class="st185" points="330.4,358.5 313,367.2 313,345.9 330.4,337.2 		"/>
		<polygon class="st186" points="330.4,464.8 313,473.5 313,452.2 330.4,443.5 		"/>
		<polygon class="st187" points="330.4,337.2 313,345.9 313,324.7 330.4,316 		"/>
		<polygon class="st188" points="330.4,316 313,324.7 313,303.4 330.4,294.7 		"/>
		<polygon class="st103" points="330.4,401 313,409.7 313,388.4 330.4,379.7 		"/>
		<polygon class="st145" points="330.4,443.5 313,452.2 313,431 330.4,422.3 		"/>
		<polygon class="st129" points="330.4,422.3 313,431 313,409.7 330.4,401 		"/>
		<polygon class="st116" points="434.7,497.7 434.7,518.9 417.4,527.6 417.4,506.3 		"/>
		<polygon class="st189" points="330.4,549.8 330.4,571.1 313,579.8 313,558.5 		"/>
		<polygon class="st112" points="347.8,541.1 347.8,562.4 330.4,571.1 330.4,549.8 		"/>
		<polygon class="st101" points="313,579.8 295.6,588.5 295.6,567.2 313,558.5 		"/>
		<polygon class="st116" points="365.2,532.4 365.2,553.7 347.8,562.4 347.8,541.1 		"/>
		<polygon class="st190" points="400,515 400,536.3 382.6,545 382.6,523.7 		"/>
		<polygon class="st137" points="417.4,506.3 417.4,527.6 400,536.3 400,515 		"/>
		<polygon class="st145" points="521.7,262.8 539.1,254.1 539.1,275.4 521.7,284.1 		"/>
		<polygon class="st115" points="382.6,523.7 382.6,545 365.2,553.7 365.2,532.4 		"/>
		<polygon class="st101" points="313,452.2 295.6,460.9 295.6,439.7 313,431 		"/>
		<polygon class="st191" points="313,431 295.6,439.7 295.6,418.4 313,409.7 		"/>
		<polygon class="st192" points="313,409.7 295.6,418.4 295.6,397.1 313,388.4 		"/>
		<polygon class="st107" points="400,493.8 400,515 382.6,523.7 382.6,502.5 		"/>
		<polygon class="st148" points="313,537.3 295.6,546 295.6,524.7 313,516 		"/>
		<polygon class="st109" points="313,473.5 295.6,482.2 295.6,460.9 313,452.2 		"/>
		<polygon class="st193" points="313,494.8 295.6,503.5 295.6,482.2 313,473.5 		"/>
		<polygon class="st107" points="313,558.5 295.6,567.2 295.6,546 313,537.3 		"/>
		<polygon class="st146" points="521.7,369.1 539.1,360.4 539.1,381.7 521.7,390.4 		"/>
		<polygon class="st136" points="521.7,390.4 539.1,381.7 539.1,402.9 521.7,411.6 		"/>
		<polygon class="st101" points="521.7,347.9 539.1,339.2 539.1,360.4 521.7,369.1 		"/>
		<polygon class="st112" points="521.7,411.6 539.1,402.9 539.1,424.2 521.7,432.9 		"/>
		<polygon class="st101" points="521.7,284.1 539.1,275.4 539.1,296.6 521.7,305.3 		"/>
		<polygon class="st121" points="521.7,305.3 539.1,296.6 539.1,317.9 521.7,326.6 		"/>
		<polygon class="st105" points="521.7,326.6 539.1,317.9 539.1,339.2 521.7,347.9 		"/>
		<polygon class="st115" points="486.9,471.6 486.9,492.8 469.5,501.5 469.5,480.3 		"/>
		<polygon class="st101" points="469.5,480.3 469.5,501.5 452.1,510.2 452.1,489 		"/>
		<polygon class="st101" points="452.1,489 452.1,510.2 434.7,518.9 434.7,497.7 		"/>
		<polygon class="st115" points="313,388.4 295.6,397.1 295.6,375.9 313,367.2 		"/>
		<polygon class="st108" points="539.1,445.5 539.1,466.7 521.7,475.4 521.7,454.2 		"/>
		<polygon class="st147" points="521.7,432.9 539.1,424.2 539.1,445.5 521.7,454.2 		"/>
		<polygon class="st101" points="521.7,454.2 521.7,475.4 504.3,484.1 504.3,462.9 		"/>
		<polygon class="st101" points="504.3,462.9 504.3,484.1 486.9,492.8 486.9,471.6 		"/>
	</g>
	<polygon class="st1" points="0,139.1 278.2,0 556.5,139.1 278.2,278.3 	"/>
	<g>
		<polygon class="st194" points="330.4,182.6 347.8,191.3 365.2,182.6 347.8,173.9 		"/>
		<polygon class="st195" points="365.2,165.2 382.6,173.9 400,165.2 382.6,156.5 		"/>
		<polygon class="st196" points="330.4,147.8 347.8,156.5 365.2,147.8 347.8,139.1 		"/>
		<polygon class="st197" points="313,139.1 330.4,130.4 313,121.7 295.6,130.4 		"/>
		<polygon class="st198" points="243.5,121.7 226.1,113 208.7,121.7 226.1,130.4 		"/>
		<polygon class="st199" points="243.5,104.3 226.1,95.7 208.7,104.3 226.1,113 		"/>
		<polygon class="st200" points="313,191.3 330.4,200 347.8,191.3 330.4,182.6 		"/>
		<polygon class="st201" points="347.8,173.9 365.2,182.6 382.6,173.9 365.2,165.2 		"/>
		<polygon class="st202" points="260.8,217.4 278.2,226.1 295.6,217.4 278.2,208.7 		"/>
		<polygon class="st203" points="260.8,200 243.5,208.7 260.8,217.4 278.2,208.7 		"/>
		<polygon class="st204" points="295.6,200 313,208.7 330.4,200 313,191.3 		"/>
		<polygon class="st205" points="278.2,87 295.6,78.3 278.2,69.6 260.8,78.3 		"/>
		<polygon class="st206" points="434.7,147.8 452.1,139.1 434.7,130.4 417.3,139.1 		"/>
		<polygon class="st207" points="417.3,139.1 434.7,130.4 417.3,121.7 400,130.4 		"/>
		<polygon class="st204" points="400,130.4 417.3,121.7 400,113 382.6,121.7 		"/>
		<polygon class="st197" points="382.6,121.7 400,113 382.6,104.3 365.2,113 		"/>
		<polygon class="st208" points="382.6,156.5 400,165.2 417.3,156.5 400,147.8 		"/>
		<polygon class="st209" points="243.5,191.3 226.1,200 243.5,208.7 260.8,200 		"/>
		<polygon class="st210" points="400,147.8 417.3,156.5 434.7,147.8 417.3,139.1 		"/>
		<polygon class="st211" points="191.3,165.2 173.9,173.9 191.3,182.6 208.7,173.9 		"/>
		<polygon class="st212" points="191.3,113 173.9,104.3 156.5,113 173.9,121.7 		"/>
		<polygon class="st213" points="173.9,121.7 156.5,113 139.1,121.7 156.5,130.4 		"/>
		<polygon class="st214" points="226.1,95.7 208.7,87 191.3,95.7 208.7,104.3 		"/>
		<polygon class="st215" points="208.7,104.3 191.3,95.7 173.9,104.3 191.3,113 		"/>
		<polygon class="st198" points="278.2,69.6 260.8,60.9 243.5,69.6 260.8,78.3 		"/>
		<polygon class="st216" points="226.1,182.6 208.7,191.3 226.1,200 243.5,191.3 		"/>
		<polygon class="st199" points="243.5,87 226.1,78.3 208.7,87 226.1,95.7 		"/>
		<polygon class="st213" points="260.8,78.3 243.5,69.6 226.1,78.3 243.5,87 		"/>
		<polygon class="st217" points="173.9,156.5 156.5,165.2 173.9,173.9 191.3,165.2 		"/>
		<polygon class="st218" points="365.2,113 382.6,104.3 365.2,95.7 347.8,104.3 		"/>
		<polygon class="st219" points="156.5,130.4 139.1,121.7 121.7,130.4 139.1,139.1 		"/>
		<polygon class="st220" points="208.7,173.9 191.3,182.6 208.7,191.3 226.1,182.6 		"/>
		<polygon class="st221" points="121.7,130.4 104.3,139.1 121.7,147.8 139.1,139.1 		"/>
		<polygon class="st222" points="156.5,147.8 139.1,156.5 156.5,165.2 173.9,156.5 		"/>
		<polygon class="st223" points="139.1,139.1 121.7,147.8 139.1,156.5 156.5,147.8 		"/>
		<polygon class="st224" points="278.2,208.7 295.6,217.4 313,208.7 295.6,200 		"/>
		<polygon class="st225" points="191.3,182.6 173.9,191.3 191.3,200 208.7,191.3 		"/>
		<polygon class="st226" points="208.7,191.3 191.3,200 208.7,208.7 226.1,200 		"/>
		<polygon class="st227" points="173.9,173.9 156.5,182.6 173.9,191.3 191.3,182.6 		"/>
		<polygon class="st228" points="347.8,104.3 365.2,95.7 347.8,87 330.4,95.7 		"/>
		<polygon class="st229" points="243.5,208.7 226.1,217.4 243.5,226.1 260.8,217.4 		"/>
		<polygon class="st230" points="121.7,147.8 104.3,156.5 121.7,165.2 139.1,156.5 		"/>
		<polygon class="st231" points="139.1,156.5 121.7,165.2 139.1,173.9 156.5,165.2 		"/>
		<polygon class="st232" points="156.5,165.2 139.1,173.9 156.5,182.6 173.9,173.9 		"/>
		<polygon class="st233" points="260.8,217.4 243.5,226.1 260.8,234.8 278.2,226.1 		"/>
		<polygon class="st234" points="313,208.7 330.4,217.4 347.8,208.7 330.4,200 		"/>
		<polygon class="st235" points="104.3,139.1 86.9,147.8 104.3,156.5 121.7,147.8 		"/>
		<polygon class="st236" points="347.8,191.3 365.2,200 382.6,191.3 365.2,182.6 		"/>
		<polygon class="st237" points="330.4,200 347.8,208.7 365.2,200 347.8,191.3 		"/>
		<polygon class="st238" points="260.8,234.8 278.2,243.5 295.6,234.8 278.2,226.1 		"/>
		<polygon class="st224" points="295.6,217.4 313,226.1 330.4,217.4 313,208.7 		"/>
		<polygon class="st239" points="278.2,226.1 295.6,234.8 313,226.1 295.6,217.4 		"/>
		<polygon class="st240" points="226.1,200 208.7,208.7 226.1,217.4 243.5,208.7 		"/>
		<polygon class="st241" points="243.5,69.6 226.1,60.9 208.7,69.6 226.1,78.3 		"/>
		<polygon class="st242" points="278.2,69.6 295.6,60.9 278.2,52.2 260.8,60.9 		"/>
		<polygon class="st243" points="260.8,60.9 243.5,52.2 226.1,60.9 243.5,69.6 		"/>
		<polygon class="st244" points="278.2,52.2 260.8,43.5 243.5,52.2 260.8,60.9 		"/>
		<polygon class="st203" points="330.4,95.7 347.8,87 330.4,78.3 313,87 		"/>
		<polygon class="st245" points="313,87 330.4,78.3 313,69.6 295.6,78.3 		"/>
		<polygon class="st195" points="295.6,78.3 313,69.6 295.6,60.9 278.2,69.6 		"/>
		<polygon class="st246" points="139.1,121.7 121.7,113 104.3,121.7 121.7,130.4 		"/>
		<polygon class="st247" points="156.5,113 139.1,104.3 121.7,113 139.1,121.7 		"/>
		<polygon class="st235" points="86.9,130.4 69.6,139.1 86.9,147.8 104.3,139.1 		"/>
		<polygon class="st248" points="121.7,130.4 104.3,121.7 86.9,130.4 104.3,139.1 		"/>
		<polygon class="st249" points="191.3,95.7 173.9,87 156.5,95.7 173.9,104.3 		"/>
		<polygon class="st250" points="208.7,87 191.3,78.3 173.9,87 191.3,95.7 		"/>
		<polygon class="st251" points="173.9,104.3 156.5,95.7 139.1,104.3 156.5,113 		"/>
		<polygon class="st252" points="226.1,78.3 208.7,69.6 191.3,78.3 208.7,87 		"/>
		<polygon class="st253" points="382.6,139.1 400,130.4 382.6,121.7 365.2,130.4 		"/>
		<polygon class="st254" points="226.1,130.4 208.7,121.7 191.3,130.4 208.7,139.1 		"/>
		<polygon class="st196" points="191.3,130.4 173.9,139.1 191.3,147.8 208.7,139.1 		"/>
		<polygon class="st255" points="208.7,139.1 191.3,147.8 208.7,156.5 226.1,147.8 		"/>
		<polygon class="st256" points="260.8,113 243.5,104.3 226.1,113 243.5,121.7 		"/>
		<polygon class="st257" points="278.2,104.3 260.8,95.7 243.5,104.3 260.8,113 		"/>
		<polygon class="st258" points="226.1,147.8 208.7,156.5 226.1,165.2 243.5,156.5 		"/>
		<polygon class="st259" points="313,156.5 330.4,165.2 347.8,156.5 330.4,147.8 		"/>
		<polygon class="st257" points="295.6,165.2 313,173.9 330.4,165.2 313,156.5 		"/>
		<polygon class="st201" points="278.2,121.7 295.6,113 278.2,104.3 260.8,113 		"/>
		<polygon class="st260" points="243.5,156.5 226.1,165.2 243.5,173.9 260.8,165.2 		"/>
		<polygon class="st261" points="278.2,173.9 295.6,182.6 313,173.9 295.6,165.2 		"/>
		<polygon class="st241" points="260.8,165.2 243.5,173.9 260.8,182.6 278.2,173.9 		"/>
		<polygon class="st262" points="260.8,182.6 278.2,191.3 295.6,182.6 278.2,173.9 		"/>
		<polygon class="st263" points="295.6,147.8 313,139.1 295.6,130.4 278.2,139.1 		"/>
		<polygon class="st264" points="278.2,121.7 260.8,113 243.5,121.7 260.8,130.4 		"/>
		<polygon class="st232" points="278.2,139.1 295.6,130.4 278.2,121.7 260.8,130.4 		"/>
		<polygon class="st265" points="260.8,130.4 243.5,121.7 226.1,130.4 243.5,139.1 		"/>
		<polygon class="st266" points="260.8,147.8 278.2,156.5 295.6,147.8 278.2,139.1 		"/>
		<polygon class="st267" points="365.2,147.8 382.6,139.1 365.2,130.4 347.8,139.1 		"/>
		<polygon class="st268" points="260.8,130.4 243.5,139.1 260.8,147.8 278.2,139.1 		"/>
		<polygon class="st269" points="226.1,130.4 208.7,139.1 226.1,147.8 243.5,139.1 		"/>
		<polygon class="st243" points="295.6,147.8 313,156.5 330.4,147.8 313,139.1 		"/>
		<polygon class="st270" points="243.5,139.1 226.1,147.8 243.5,156.5 260.8,147.8 		"/>
		<polygon class="st246" points="330.4,147.8 347.8,139.1 330.4,130.4 313,139.1 		"/>
		<polygon class="st224" points="295.6,130.4 313,121.7 295.6,113 278.2,121.7 		"/>
		<polygon class="st271" points="278.2,156.5 295.6,165.2 313,156.5 295.6,147.8 		"/>
		<polygon class="st272" points="260.8,147.8 243.5,156.5 260.8,165.2 278.2,156.5 		"/>
		<polygon class="st195" points="260.8,165.2 278.2,173.9 295.6,165.2 278.2,156.5 		"/>
		<polygon class="st273" points="243.5,173.9 226.1,182.6 243.5,191.3 260.8,182.6 		"/>
		<polygon class="st274" points="313,173.9 330.4,182.6 347.8,173.9 330.4,165.2 		"/>
		<polygon class="st231" points="330.4,165.2 347.8,173.9 365.2,165.2 347.8,156.5 		"/>
		<polygon class="st275" points="295.6,95.7 313,87 295.6,78.3 278.2,87 		"/>
		<polygon class="st276" points="347.8,156.5 365.2,165.2 382.6,156.5 365.2,147.8 		"/>
		<polygon class="st214" points="260.8,182.6 243.5,191.3 260.8,200 278.2,191.3 		"/>
		<polygon class="st277" points="278.2,191.3 295.6,200 313,191.3 295.6,182.6 		"/>
		<polygon class="st278" points="260.8,200 278.2,208.7 295.6,200 278.2,191.3 		"/>
		<polygon class="st279" points="295.6,182.6 313,191.3 330.4,182.6 313,173.9 		"/>
		<polygon class="st280" points="330.4,113 347.8,104.3 330.4,95.7 313,104.3 		"/>
		<polygon class="st281" points="313,104.3 330.4,95.7 313,87 295.6,95.7 		"/>
		<polygon class="st231" points="278.2,87 260.8,78.3 243.5,87 260.8,95.7 		"/>
		<polygon class="st282" points="347.8,121.7 365.2,113 347.8,104.3 330.4,113 		"/>
		<polygon class="st283" points="365.2,182.6 382.6,191.3 400,182.6 382.6,173.9 		"/>
		<polygon class="st284" points="365.2,130.4 382.6,121.7 365.2,113 347.8,121.7 		"/>
		<polygon class="st285" points="400,147.8 417.3,139.1 400,130.4 382.6,139.1 		"/>
		<polygon class="st286" points="365.2,147.8 382.6,156.5 400,147.8 382.6,139.1 		"/>
		<polygon class="st247" points="156.5,130.4 139.1,139.1 156.5,147.8 173.9,139.1 		"/>
		<polygon class="st287" points="278.2,104.3 295.6,95.7 278.2,87 260.8,95.7 		"/>
		<polygon class="st288" points="260.8,95.7 243.5,87 226.1,95.7 243.5,104.3 		"/>
		<polygon class="st272" points="330.4,130.4 347.8,121.7 330.4,113 313,121.7 		"/>
		<polygon class="st254" points="313,121.7 330.4,113 313,104.3 295.6,113 		"/>
		<polygon class="st1" points="295.6,113 313,104.3 295.6,95.7 278.2,104.3 		"/>
		<polygon class="st289" points="208.7,156.5 191.3,165.2 208.7,173.9 226.1,165.2 		"/>
		<polygon class="st290" points="226.1,113 208.7,104.3 191.3,113 208.7,121.7 		"/>
		<polygon class="st288" points="191.3,147.8 173.9,156.5 191.3,165.2 208.7,156.5 		"/>
		<polygon class="st263" points="226.1,165.2 208.7,173.9 226.1,182.6 243.5,173.9 		"/>
		<polygon class="st272" points="173.9,139.1 156.5,147.8 173.9,156.5 191.3,147.8 		"/>
		<polygon class="st291" points="208.7,121.7 191.3,113 173.9,121.7 191.3,130.4 		"/>
		<polygon class="st292" points="347.8,139.1 365.2,130.4 347.8,121.7 330.4,130.4 		"/>
		<polygon class="st293" points="191.3,130.4 173.9,121.7 156.5,130.4 173.9,139.1 		"/>
		<polygon class="st1" points="278.2,17.4 260.8,8.7 243.5,17.4 260.8,26.1 		"/>
		<polygon class="st294" points="86.9,165.2 69.6,173.9 86.9,182.6 104.3,173.9 		"/>
		<polygon class="st295" points="69.6,156.5 52.2,165.2 69.6,173.9 86.9,165.2 		"/>
		<polygon class="st296" points="121.7,182.6 104.3,191.3 121.7,200 139.1,191.3 		"/>
		<polygon class="st297" points="52.2,130.4 34.8,121.7 17.4,130.4 34.8,139.1 		"/>
		<polygon class="st194" points="17.4,130.4 0,139.1 17.4,147.8 34.8,139.1 		"/>
		<polygon class="st298" points="34.8,139.1 17.4,147.8 34.8,156.5 52.2,147.8 		"/>
		<polygon class="st299" points="260.8,252.2 243.5,260.9 260.8,269.6 278.2,260.9 		"/>
		<polygon class="st207" points="104.3,173.9 86.9,182.6 104.3,191.3 121.7,182.6 		"/>
		<polygon class="st231" points="208.7,226.1 191.3,234.8 208.7,243.5 226.1,234.8 		"/>
		<polygon class="st194" points="226.1,234.8 208.7,243.5 226.1,252.2 243.5,243.5 		"/>
		<polygon class="st300" points="243.5,243.5 226.1,252.2 243.5,260.9 260.8,252.2 		"/>
		<polygon class="st200" points="156.5,200 139.1,208.7 156.5,217.4 173.9,208.7 		"/>
		<polygon class="st301" points="139.1,191.3 121.7,200 139.1,208.7 156.5,200 		"/>
		<polygon class="st302" points="191.3,217.4 173.9,226.1 191.3,234.8 208.7,226.1 		"/>
		<polygon class="st303" points="173.9,208.7 156.5,217.4 173.9,226.1 191.3,217.4 		"/>
		<polygon class="st304" points="52.2,147.8 34.8,156.5 52.2,165.2 69.6,156.5 		"/>
		<polygon class="st235" points="243.5,34.8 226.1,26.1 208.7,34.8 226.1,43.5 		"/>
		<polygon class="st305" points="226.1,43.5 208.7,34.8 191.3,43.5 208.7,52.2 		"/>
		<polygon class="st306" points="260.8,26.1 243.5,17.4 226.1,26.1 243.5,34.8 		"/>
		<polygon class="st307" points="295.6,43.5 313,34.8 295.6,26.1 278.2,34.8 		"/>
		<polygon class="st308" points="313,52.2 330.4,43.5 313,34.8 295.6,43.5 		"/>
		<polygon class="st309" points="208.7,52.2 191.3,43.5 173.9,52.2 191.3,60.9 		"/>
		<polygon class="st310" points="278.2,34.8 295.6,26.1 278.2,17.4 260.8,26.1 		"/>
		<polygon class="st311" points="86.9,113 69.6,104.3 52.2,113 69.6,121.7 		"/>
		<polygon class="st312" points="104.3,104.3 86.9,95.7 69.6,104.3 86.9,113 		"/>
		<polygon class="st313" points="121.7,95.7 104.3,87 86.9,95.7 104.3,104.3 		"/>
		<polygon class="st314" points="69.6,121.7 52.2,113 34.8,121.7 52.2,130.4 		"/>
		<polygon class="st315" points="191.3,60.9 173.9,52.2 156.5,60.9 173.9,69.6 		"/>
		<polygon class="st263" points="139.1,87 121.7,78.3 104.3,87 121.7,95.7 		"/>
		<polygon class="st316" points="173.9,69.6 156.5,60.9 139.1,69.6 156.5,78.3 		"/>
		<polygon class="st231" points="156.5,78.3 139.1,69.6 121.7,78.3 139.1,87 		"/>
		<polygon class="st317" points="521.7,139.1 539.1,130.4 521.7,121.7 504.3,130.4 		"/>
		<polygon class="st1" points="434.7,95.7 452.1,87 434.7,78.3 417.3,87 		"/>
		<polygon class="st318" points="452.1,104.3 469.5,95.7 452.1,87 434.7,95.7 		"/>
		<polygon class="st214" points="400,78.3 417.3,69.6 400,60.9 382.6,69.6 		"/>
		<polygon class="st319" points="417.3,87 434.7,78.3 417.3,69.6 400,78.3 		"/>
		<polygon class="st320" points="330.4,60.9 347.8,52.2 330.4,43.5 313,52.2 		"/>
		<polygon class="st321" points="469.5,113 486.9,104.3 469.5,95.7 452.1,104.3 		"/>
		<polygon class="st322" points="486.9,121.7 504.3,113 486.9,104.3 469.5,113 		"/>
		<polygon class="st323" points="313,34.8 330.4,26.1 313,17.4 295.6,26.1 		"/>
		<polygon class="st224" points="504.3,130.4 521.7,121.7 504.3,113 486.9,121.7 		"/>
		<polygon class="st1" points="295.6,26.1 313,17.4 295.6,8.7 278.2,17.4 		"/>
		<polygon class="st324" points="260.8,8.7 278.2,17.4 295.6,8.7 278.2,0 		"/>
		<polygon class="st325" points="382.6,69.6 400,60.9 382.6,52.2 365.2,60.9 		"/>
		<polygon class="st326" points="330.4,43.5 347.8,34.8 330.4,26.1 313,34.8 		"/>
		<polygon class="st204" points="365.2,60.9 382.6,52.2 365.2,43.5 347.8,52.2 		"/>
		<polygon class="st326" points="347.8,52.2 365.2,43.5 347.8,34.8 330.4,43.5 		"/>
		<polygon class="st327" points="504.3,147.8 521.7,156.5 539.1,147.8 521.7,139.1 		"/>
		<polygon class="st328" points="539.1,147.8 556.5,139.1 539.1,130.4 521.7,139.1 		"/>
		<polygon class="st329" points="365.2,217.4 382.6,226.1 400,217.4 382.6,208.7 		"/>
		<polygon class="st318" points="330.4,234.8 347.8,243.5 365.2,234.8 347.8,226.1 		"/>
		<polygon class="st283" points="278.2,260.9 295.6,269.6 313,260.9 295.6,252.2 		"/>
		<polygon class="st330" points="382.6,208.7 400,217.4 417.4,208.7 400,200 		"/>
		<polygon class="st272" points="313,243.5 330.4,252.2 347.8,243.5 330.4,234.8 		"/>
		<polygon class="st331" points="295.6,252.2 313,260.9 330.4,252.2 313,243.5 		"/>
		<polygon class="st316" points="347.8,226.1 365.2,234.8 382.6,226.1 365.2,217.4 		"/>
		<polygon class="st332" points="486.9,156.5 504.3,165.2 521.7,156.5 504.3,147.8 		"/>
		<polygon class="st333" points="469.5,165.2 486.9,173.9 504.3,165.2 486.9,156.5 		"/>
		<polygon class="st334" points="260.8,269.6 278.2,278.3 295.6,269.6 278.2,260.9 		"/>
		<polygon class="st296" points="434.7,182.6 452.1,191.3 469.5,182.6 452.1,173.9 		"/>
		<polygon class="st335" points="417.4,191.3 434.7,200 452.1,191.3 434.7,182.6 		"/>
		<polygon class="st336" points="452.1,173.9 469.5,182.6 486.9,173.9 469.5,165.2 		"/>
		<polygon class="st337" points="400,200 417.4,208.7 434.7,200 417.4,191.3 		"/>
		<polygon class="st338" points="313,69.6 330.4,60.9 313,52.2 295.6,60.9 		"/>
		<polygon class="st339" points="208.7,69.6 191.3,60.9 173.9,69.6 191.3,78.3 		"/>
		<polygon class="st340" points="191.3,78.3 173.9,69.6 156.5,78.3 173.9,87 		"/>
		<polygon class="st197" points="156.5,95.7 139.1,87 121.7,95.7 139.1,104.3 		"/>
		<polygon class="st341" points="173.9,87 156.5,78.3 139.1,87 156.5,95.7 		"/>
		<polygon class="st272" points="260.8,43.5 243.5,34.8 226.1,43.5 243.5,52.2 		"/>
		<polygon class="st277" points="243.5,52.2 226.1,43.5 208.7,52.2 226.1,60.9 		"/>
		<polygon class="st342" points="226.1,60.9 208.7,52.2 191.3,60.9 208.7,69.6 		"/>
		<polygon class="st256" points="86.9,147.8 69.6,156.5 86.9,165.2 104.3,156.5 		"/>
		<polygon class="st343" points="69.6,139.1 52.2,147.8 69.6,156.5 86.9,147.8 		"/>
		<polygon class="st344" points="278.2,34.8 260.8,26.1 243.5,34.8 260.8,43.5 		"/>
		<polygon class="st345" points="52.2,130.4 34.8,139.1 52.2,147.8 69.6,139.1 		"/>
		<polygon class="st240" points="86.9,130.4 69.6,121.7 52.2,130.4 69.6,139.1 		"/>
		<polygon class="st265" points="121.7,113 104.3,104.3 86.9,113 104.3,121.7 		"/>
		<polygon class="st346" points="139.1,104.3 121.7,95.7 104.3,104.3 121.7,113 		"/>
		<polygon class="st1" points="104.3,121.7 86.9,113 69.6,121.7 86.9,130.4 		"/>
		<polygon class="st347" points="400,113 417.3,104.3 400,95.7 382.6,104.3 		"/>
		<polygon class="st348" points="469.5,147.8 486.9,139.1 469.5,130.4 452.1,139.1 		"/>
		<polygon class="st240" points="417.3,121.7 434.7,113 417.3,104.3 400,113 		"/>
		<polygon class="st331" points="434.7,130.4 452.1,121.7 434.7,113 417.3,121.7 		"/>
		<polygon class="st272" points="452.1,139.1 469.5,130.4 452.1,121.7 434.7,130.4 		"/>
		<polygon class="st234" points="400,165.2 417.3,173.9 434.7,165.2 417.3,156.5 		"/>
		<polygon class="st200" points="434.7,147.8 452.1,156.5 469.5,147.8 452.1,139.1 		"/>
		<polygon class="st253" points="417.3,156.5 434.7,165.2 452.1,156.5 434.7,147.8 		"/>
		<polygon class="st349" points="365.2,95.7 382.6,87 365.2,78.3 347.8,87 		"/>
		<polygon class="st350" points="382.6,173.9 400,182.6 417.3,173.9 400,165.2 		"/>
		<polygon class="st194" points="295.6,60.9 313,52.2 295.6,43.5 278.2,52.2 		"/>
		<polygon class="st351" points="104.3,156.5 86.9,165.2 104.3,173.9 121.7,165.2 		"/>
		<polygon class="st267" points="330.4,78.3 347.8,69.6 330.4,60.9 313,69.6 		"/>
		<polygon class="st352" points="278.2,52.2 295.6,43.5 278.2,34.8 260.8,43.5 		"/>
		<polygon class="st353" points="382.6,104.3 400,95.7 382.6,87 365.2,95.7 		"/>
		<polygon class="st199" points="347.8,87 365.2,78.3 347.8,69.6 330.4,78.3 		"/>
		<polygon class="st354" points="417.3,104.3 434.7,95.7 417.3,87 400,95.7 		"/>
		<polygon class="st224" points="469.5,147.8 486.9,156.5 504.3,147.8 486.9,139.1 		"/>
		<polygon class="st200" points="452.1,156.5 469.5,165.2 486.9,156.5 469.5,147.8 		"/>
		<polygon class="st214" points="486.9,139.1 504.3,130.4 486.9,121.7 469.5,130.4 		"/>
		<polygon class="st321" points="504.3,147.8 521.7,139.1 504.3,130.4 486.9,139.1 		"/>
		<polygon class="st263" points="400,182.6 417.4,191.3 434.7,182.6 417.3,173.9 		"/>
		<polygon class="st270" points="382.6,191.3 400,200 417.4,191.3 400,182.6 		"/>
		<polygon class="st267" points="434.7,165.2 452.1,173.9 469.5,165.2 452.1,156.5 		"/>
		<polygon class="st200" points="417.3,173.9 434.7,182.6 452.1,173.9 434.7,165.2 		"/>
		<polygon class="st257" points="382.6,87 400,78.3 382.6,69.6 365.2,78.3 		"/>
		<polygon class="st224" points="400,95.7 417.3,87 400,78.3 382.6,87 		"/>
		<polygon class="st267" points="365.2,78.3 382.6,69.6 365.2,60.9 347.8,69.6 		"/>
		<polygon class="st355" points="434.7,113 452.1,104.3 434.7,95.7 417.3,104.3 		"/>
		<polygon class="st356" points="121.7,165.2 104.3,173.9 121.7,182.6 139.1,173.9 		"/>
		<polygon class="st231" points="469.5,130.4 486.9,121.7 469.5,113 452.1,121.7 		"/>
		<polygon class="st248" points="347.8,69.6 365.2,60.9 347.8,52.2 330.4,60.9 		"/>
		<polygon class="st357" points="452.1,121.7 469.5,113 452.1,104.3 434.7,113 		"/>
		<polygon class="st1" points="208.7,208.7 191.3,217.4 208.7,226.1 226.1,217.4 		"/>
		<polygon class="st287" points="191.3,200 173.9,208.7 191.3,217.4 208.7,208.7 		"/>
		<polygon class="st358" points="226.1,217.4 208.7,226.1 226.1,234.8 243.5,226.1 		"/>
		<polygon class="st288" points="156.5,182.6 139.1,191.3 156.5,200 173.9,191.3 		"/>
		<polygon class="st222" points="139.1,173.9 121.7,182.6 139.1,191.3 156.5,182.6 		"/>
		<polygon class="st253" points="365.2,200 382.6,208.7 400,200 382.6,191.3 		"/>
		<polygon class="st359" points="243.5,226.1 226.1,234.8 243.5,243.5 260.8,234.8 		"/>
		<polygon class="st253" points="173.9,191.3 156.5,200 173.9,208.7 191.3,200 		"/>
		<polygon class="st360" points="260.8,234.8 243.5,243.5 260.8,252.2 278.2,243.5 		"/>
		<polygon class="st343" points="330.4,217.4 347.8,226.1 365.2,217.4 347.8,208.7 		"/>
		<polygon class="st349" points="347.8,208.7 365.2,217.4 382.6,208.7 365.2,200 		"/>
		<polygon class="st203" points="313,226.1 330.4,234.8 347.8,226.1 330.4,217.4 		"/>
		<polygon class="st361" points="295.6,234.8 313,243.5 330.4,234.8 313,226.1 		"/>
		<polygon class="st362" points="260.8,252.2 278.2,260.9 295.6,252.2 278.2,243.5 		"/>
		<polygon class="st215" points="278.2,243.5 295.6,252.2 313,243.5 295.6,234.8 		"/>
	</g>
</g>
<polygon class="st363" points="0,139.1 278.2,278.3 278.2,618.5 0,479.3 "/>
<polygon class="st364" points="278.2,278.3 556.5,139.1 556.5,479.3 278.2,618.5 "/>
</svg>
